<?xml version="1.0" encoding="utf-8"?>
<!-- Generator: Adobe Illustrator 22.0.1, SVG Export Plug-In . SVG Version: 6.00 Build 0)  -->
<svg version="1.2" baseProfile="tiny"
	 id="svg151" inkscape:version="0.92.4 (5da689c313, 2019-01-14)" sodipodi:docname="logo-epa-provence-alpes-cote-azur.svg" xmlns:cc="http://creativecommons.org/ns#" xmlns:dc="http://purl.org/dc/elements/1.1/" xmlns:inkscape="http://www.inkscape.org/namespaces/inkscape" xmlns:rdf="http://www.w3.org/1999/02/22-rdf-syntax-ns#" xmlns:sodipodi="http://sodipodi.sourceforge.net/DTD/sodipodi-0.dtd" xmlns:svg="http://www.w3.org/2000/svg"
	 xmlns="http://www.w3.org/2000/svg" xmlns:xlink="http://www.w3.org/1999/xlink" x="0px" y="0px" viewBox="0 0 313.3 93.5"
	 xml:space="preserve">
<sodipodi:namedview  bordercolor="#666666" borderopacity="1" gridtolerance="10" guidetolerance="10" id="namedview153" inkscape:current-layer="svg151" inkscape:cx="128.4728" inkscape:cy="100.60507" inkscape:guide-bbox="true" inkscape:pageopacity="0" inkscape:pageshadow="2" inkscape:window-height="1001" inkscape:window-maximized="1" inkscape:window-width="1920" inkscape:window-x="-9" inkscape:window-y="-9" inkscape:zoom="1.4172172" objecttolerance="5" pagecolor="#ffffff" showgrid="false" showguides="true">
	<sodipodi:guide  id="guide1020" inkscape:locked="false" orientation="1,0" position="143.5077,6.7668776"></sodipodi:guide>
	<sodipodi:guide  id="guide1022" inkscape:locked="false" orientation="0,1" position="148.09171,2.7129878"></sodipodi:guide>
</sodipodi:namedview>
<title  id="title6">Fichier 1</title>
<g id="Calque_2_1_">
	<g id="Calque_1-2">
		<path id="path8" fill="#FFFFFF" d="M71.2,0L58.9,24.7L46.5,0L24.4,38.3l5.8,10l15.7-27.2l7.4,14.8L39.3,64l6,10.5l2.4-5l11.2-22.4
			l10.8,21.6l2.9,5.9h41.7L71.2,0z M78.5,64.1L64.5,35.9l7.4-14.8L97,64.6H78.8L78.5,64.1z"/>
		<path id="path10" fill="#FFFFFF" d="M269.1,17.6c1.9-0.1,3.9,0.3,5.5,1.3c2,1.6,2.5,4.5,1.1,6.7c-0.6,0.7-1.3,1.3-2.2,1.7
			c0.4,0.4,0.7,0.9,1,1.4c0.4,0.5,0.7,1.1,1.1,1.6s0.7,1.2,1,1.8c0.3,0.6,0.6,1.2,0.9,1.8h-4c-0.3-0.5-0.6-1.1-0.9-1.6
			s-0.6-1.1-0.9-1.6s-0.6-1-0.9-1.5s-0.6-0.8-0.9-1.2h-1.8v5.9h-3.7V18c0.8-0.2,1.6-0.3,2.5-0.3C267.7,17.6,268.5,17.6,269.1,17.6z
			 M269.4,20.7h-1.3v4.4h1c1,0.1,2-0.1,2.9-0.5c0.6-0.4,0.9-1,0.9-1.7c0.1-0.7-0.3-1.3-0.9-1.7C271.1,20.8,270.2,20.6,269.4,20.7z"
			/>
		<path id="path12" fill="#FFFFFF" d="M279.9,33.8V17.8h10.9v3h-7.2V24h6.4v3h-6.4v3.9h7.8v3L279.9,33.8z"/>
		<path id="path14" fill="#FFFFFF" d="M110.1,33.8V17.8h10.8v3h-7.3V24h6.4v3h-6.4v3.9h7.8v3L110.1,33.8z"/>
		<path id="path16" fill="#FFFFFF" d="M134.9,33.8c-1-1.8-2.2-3.6-3.4-5.5c-1.2-1.8-2.5-3.5-3.9-5.1v10.5h-3.6V17.8h3
			c0.5,0.5,1.1,1.1,1.7,1.9s1.2,1.5,1.8,2.3s1.3,1.7,1.9,2.6s1.2,1.8,1.8,2.6v-9.4h3.6v16.1H134.9z"/>
		<path id="path18" fill="#FFFFFF" d="M153.5,17.8v3.1h-4.8v13h-3.6v-13h-4.8v-3.1H153.5z"/>
		<path id="path20" fill="#FFFFFF" d="M160.6,17.6c1.9-0.1,3.9,0.3,5.5,1.3c2,1.6,2.5,4.5,1.1,6.7c-0.6,0.8-1.4,1.3-2.3,1.7
			c0.3,0.4,0.6,0.9,1,1.4s0.7,1.1,1.1,1.6s0.7,1.2,1,1.8s0.6,1.2,0.9,1.8h-4c-0.3-0.5-0.6-1.1-0.9-1.6s-0.6-1.1-0.9-1.6
			s-0.6-1-0.9-1.5s-0.6-0.9-0.9-1.2h-1.8v5.9h-3.6V18c0.8-0.2,1.6-0.3,2.4-0.3C159.1,17.6,159.9,17.6,160.6,17.6z M160.8,20.7h-1.3
			v4.4h1c1,0.1,2-0.1,2.9-0.5c0.6-0.4,0.9-1,0.9-1.7c0.1-0.7-0.3-1.3-0.9-1.7C162.6,20.8,161.7,20.6,160.8,20.7z"/>
		<path id="path22" fill="#FFFFFF" d="M261.4,25.8c0,1.2-0.2,2.5-0.6,3.6c-0.4,1-1,1.9-1.8,2.6c-0.9,0.7-1.9,1.2-2.9,1.5
			c-1.3,0.4-2.5,0.5-3.9,0.5c-0.6,0-1.4,0-2.3-0.1c-0.9-0.1-1.7-0.2-2.6-0.3V18c0.9-0.2,1.7-0.3,2.6-0.3c0.9,0,1.7-0.1,2.3-0.1
			c1.3,0,2.5,0.1,3.7,0.5c1.1,0.3,2,0.8,2.9,1.5c0.8,0.7,1.5,1.6,1.9,2.6C261.2,23.3,261.4,24.5,261.4,25.8z M251,30.9h1.4
			c1.5,0.1,2.9-0.4,4-1.4c0.9-1,1.4-2.4,1.3-3.8c0.4-2.5-1.4-4.8-3.8-5.1c-0.5-0.1-0.9-0.1-1.4,0h-0.8c-0.2,0-0.5,0-0.8,0L251,30.9z
			"/>
		<path id="path24" fill="#FFFFFF" d="M127.2,38c1.9-0.1,3.8,0.3,5.5,1.3c1.3,0.9,2.1,2.5,1.9,4.1c0.1,1.6-0.6,3.2-1.9,4.2
			c-1.7,1-3.6,1.4-5.6,1.3H126v5.4h-3.6V38.5c0.8-0.2,1.7-0.3,2.5-0.3C125.8,38.1,126.6,38,127.2,38z M127.5,41.1H126v4.6h1.1
			c1,0.1,1.9-0.1,2.8-0.5c0.7-0.4,1.1-1.1,1-1.9c0-0.4-0.1-0.8-0.2-1.1c-0.2-0.3-0.4-0.5-0.7-0.7c-0.3-0.2-0.7-0.3-1.1-0.4
			C128.4,41.1,127.9,41,127.5,41.1L127.5,41.1z"/>
		<path id="path26" fill="#FFFFFF" d="M152.6,46.2c0,1.2-0.2,2.5-0.6,3.6c-0.4,1-0.9,1.9-1.7,2.6c-0.7,0.7-1.6,1.3-2.5,1.6
			c-2,0.7-4.2,0.7-6.3,0c-2-0.7-3.5-2.2-4.3-4.2c-0.9-2.3-0.9-4.9,0-7.3c0.4-1,1-1.9,1.7-2.6c0.7-0.7,1.6-1.3,2.6-1.6
			c1-0.3,2-0.5,3-0.5c1.1,0,2.1,0.2,3.1,0.5c1,0.3,1.8,0.9,2.6,1.6c0.8,0.7,1.4,1.6,1.8,2.6C152.4,43.8,152.7,45,152.6,46.2z
			 M140.4,46.2c0,0.7,0.1,1.4,0.3,2.1c0.2,0.6,0.5,1.2,0.8,1.6c0.4,0.4,0.8,0.8,1.3,1c1.1,0.5,2.5,0.5,3.6,0c0.5-0.2,1-0.6,1.4-1
			c0.4-0.5,0.7-1,0.8-1.6c0.2-0.7,0.3-1.4,0.3-2.1c0-0.7-0.1-1.5-0.3-2.2c-0.2-0.6-0.4-1.2-0.8-1.7c-0.4-0.4-0.8-0.8-1.4-1
			c-0.6-0.3-1.2-0.4-1.8-0.4c-0.6,0-1.2,0.1-1.8,0.4c-0.5,0.2-1,0.6-1.3,1.1c-0.4,0.5-0.7,1-0.9,1.6
			C140.4,44.8,140.3,45.5,140.4,46.2z"/>
		<path id="path28" fill="#FFFFFF" d="M161.9,54.6c-1,0-2-0.1-2.9-0.5c-0.8-0.3-1.4-0.7-2-1.3c-0.5-0.6-0.9-1.3-1.2-2
			c-0.3-0.8-0.4-1.7-0.4-2.6v-10h3.6v9.7c0,0.6,0.1,1.1,0.2,1.7c0.1,0.4,0.3,0.8,0.6,1.1c0.2,0.3,0.6,0.5,0.9,0.6
			c0.4,0.1,0.8,0.2,1.2,0.2c0.8,0,1.6-0.3,2.1-0.8c0.6-0.8,0.9-1.8,0.8-2.8v-9.7h3.6v10c0,0.9-0.1,1.8-0.4,2.6
			c-0.2,0.7-0.7,1.4-1.2,2c-0.6,0.6-1.3,1-2.1,1.3C164,54.5,162.9,54.6,161.9,54.6z"/>
		<path id="path30" fill="#FFFFFF" d="M171.3,33.8V17.8h10.9v3h-7.2V24h6.4v3h-6.4v3.9h7.8v3L171.3,33.8z"/>
		<path id="path32" fill="#FFFFFF" d="M190.2,17.6c1.9-0.1,3.8,0.3,5.5,1.3c1.3,0.9,2,2.5,1.9,4.1c0.1,1.6-0.6,3.2-1.9,4.2
			c-1.7,1-3.6,1.4-5.6,1.3H189v5.4h-3.6V18c0.8-0.2,1.7-0.3,2.5-0.3C188.8,17.6,189.5,17.6,190.2,17.6z M190.4,20.7H189v4.6h1.1
			c1,0.1,1.9-0.1,2.8-0.5c0.7-0.4,1-1.1,0.9-1.9c0-0.4-0.1-0.8-0.2-1.1c-0.2-0.3-0.4-0.5-0.7-0.7c-0.3-0.2-0.7-0.3-1.1-0.4
			C191.4,20.7,190.9,20.7,190.4,20.7z"/>
		<path id="path34" fill="#FFFFFF" d="M205,17.6c1.9-0.1,3.9,0.3,5.5,1.3c2,1.6,2.5,4.5,1.1,6.7c-0.6,0.8-1.4,1.3-2.2,1.7
			c0.4,0.4,0.7,0.9,1,1.4c0.4,0.5,0.7,1.1,1.1,1.6s0.7,1.2,1,1.8c0.3,0.6,0.6,1.2,0.9,1.8h-4c-0.3-0.5-0.6-1.1-0.9-1.6
			s-0.6-1.1-0.9-1.6s-0.6-1-0.9-1.5s-0.6-0.8-0.9-1.2h-1.8v5.9h-3.6V18c0.8-0.2,1.6-0.3,2.4-0.3C203.6,17.6,204.4,17.6,205,17.6z
			 M205.2,20.7h-1.3v4.4h1c1,0.1,2-0.1,2.9-0.5c0.6-0.4,0.9-1,0.9-1.7c0.1-0.7-0.3-1.3-0.9-1.7C207,20.8,206.1,20.6,205.2,20.7z"/>
		<path id="path36" fill="#FFFFFF" d="M215.8,33.8V17.8h10.9v3h-7.2V24h6.4v3h-6.4v3.9h7.8v3L215.8,33.8z"/>
		<path id="path38" fill="#FFFFFF" d="M240.6,33.8c-1-1.8-2.2-3.6-3.4-5.5c-1.2-1.8-2.5-3.5-3.9-5.1v10.5h-3.6V17.8h2.9
			c0.5,0.5,1.1,1.1,1.7,1.9s1.2,1.5,1.9,2.4s1.3,1.7,1.9,2.6s1.2,1.8,1.8,2.6v-9.5h3.6v16.1H240.6z"/>
		<path id="path40" fill="#FFFFFF" d="M176.7,38c1.9-0.1,3.9,0.3,5.5,1.3c1.3,0.9,2,2.4,1.9,4c0,1-0.2,2-0.8,2.8
			c-0.6,0.7-1.4,1.3-2.2,1.7c0.3,0.4,0.6,0.9,1,1.4c0.4,0.5,0.7,1.1,1,1.6c0.3,0.6,0.7,1.2,1,1.8s0.6,1.2,0.9,1.8h-4l-0.9-1.6
			c-0.3-0.5-0.6-1.1-0.9-1.6c-0.3-0.5-0.6-1-1-1.5c-0.4-0.5-0.6-0.9-0.9-1.2h-1.8v5.9H172V38.5c0.8-0.2,1.6-0.3,2.4-0.3
			C175.3,38.1,176.1,38,176.7,38z M177,41.1h-1.3v4.4h1c1,0.1,2,0,3-0.4c0.6-0.4,0.9-1,0.9-1.7c0.1-0.7-0.3-1.3-0.9-1.7
			C178.8,41.2,177.9,41.1,177,41.1L177,41.1z"/>
		<path id="path42" fill="#FFFFFF" d="M146.2,74.7c-0.2-0.6-0.4-1.1-0.6-1.7s-0.4-1.2-0.6-1.8h-6.3c-0.2,0.6-0.4,1.2-0.6,1.8
			s-0.4,1.2-0.6,1.7h-3.8c0.6-1.7,1.2-3.3,1.7-4.8s1.1-2.8,1.6-4.2s1-2.5,1.5-3.7s1-2.3,1.6-3.4h3.4c0.5,1.1,1.1,2.3,1.6,3.4
			c0.5,1.2,1,2.4,1.6,3.7s1,2.7,1.6,4.2s1.1,3.1,1.7,4.8L146.2,74.7z M141.8,62.3c-0.1,0.2-0.2,0.5-0.4,1s-0.3,0.9-0.5,1.4l-0.7,1.7
			c-0.2,0.6-0.5,1.3-0.8,2h4.6c-0.2-0.7-0.5-1.4-0.7-2s-0.4-1.2-0.7-1.7s-0.4-1-0.5-1.4L141.8,62.3z"/>
		<path id="path44" fill="#FFFFFF" d="M156.9,58.5c1.9-0.1,3.8,0.3,5.5,1.3c2.3,1.9,2.6,5.4,0.7,7.6c0,0,0,0,0,0
			c-0.2,0.2-0.4,0.5-0.7,0.7c-1.7,1-3.6,1.4-5.6,1.3h-1.1v5.4h-3.6V58.9c0.8-0.2,1.7-0.3,2.5-0.3C155.5,58.5,156.3,58.5,156.9,58.5z
			 M157.2,61.6h-0.8h-0.7v4.6h1.1c1,0.1,1.9-0.1,2.8-0.5c0.7-0.4,1-1.1,0.9-1.9c0-0.4-0.1-0.8-0.2-1.1c-0.2-0.3-0.4-0.5-0.7-0.7
			c-0.3-0.2-0.7-0.3-1.1-0.4C158.1,61.6,157.6,61.5,157.2,61.6L157.2,61.6z"/>
		<path id="path46" fill="#FFFFFF" d="M171.9,58.5c1.9-0.1,3.8,0.3,5.5,1.3c2.3,1.9,2.6,5.4,0.7,7.6c0,0,0,0,0,0
			c-0.2,0.2-0.4,0.5-0.7,0.7c-1.7,1-3.6,1.4-5.6,1.3h-1.2v5.4H167V58.9c0.8-0.2,1.7-0.3,2.5-0.3C170.4,58.5,171.2,58.5,171.9,58.5z
			 M172.1,61.6h-0.8h-0.7v4.6h1.1c1,0.1,1.9-0.1,2.8-0.5c0.7-0.4,1-1.1,0.9-1.9c0-0.4-0.1-0.8-0.2-1.1c-0.2-0.3-0.4-0.5-0.7-0.7
			c-0.3-0.2-0.7-0.3-1.1-0.4C173.1,61.6,172.6,61.5,172.1,61.6z"/>
		<path id="path48" fill="#FFFFFF" d="M186.7,58.5c1.9-0.1,3.9,0.3,5.5,1.3c2.2,1.5,2.7,4.4,1.3,6.6c-0.6,0.8-1.4,1.5-2.4,1.8
			c0.3,0.4,0.6,0.9,1,1.4s0.7,1.1,1.1,1.6s0.7,1.2,1,1.8s0.6,1.2,0.9,1.8h-4l-0.9-1.6c-0.3-0.5-0.6-1.1-0.9-1.6s-0.6-1-0.9-1.4
			s-0.6-0.9-0.9-1.2h-1.8v5.9H182V58.9c0.8-0.2,1.6-0.3,2.4-0.3C185.3,58.5,186,58.5,186.7,58.5z M186.9,61.6h-0.7h-0.6V66h1
			c1,0.1,2-0.1,2.9-0.5c0.6-0.4,0.9-1,0.9-1.7c0.1-0.7-0.3-1.3-0.9-1.7C188.7,61.7,187.8,61.5,186.9,61.6z"/>
		<path id="path50" fill="#FFFFFF" d="M197.4,74.7V58.7h10.9v3h-7.2v3.2h6.4v3h-6.4v3.9h7.8v3L197.4,74.7z"/>
		<path id="path52" fill="#FFFFFF" d="M222.3,74.7c-1-1.8-2.2-3.7-3.4-5.4c-1.2-1.8-2.5-3.5-3.8-5.1v10.5h-3.6V58.7h2.9
			c0.5,0.5,1.1,1.1,1.7,1.9s1.2,1.5,1.9,2.4s1.3,1.7,1.9,2.6s1.2,1.8,1.8,2.6v-9.5h3.6v16.1H222.3z"/>
		<path id="path54" fill="#FFFFFF" d="M243.1,66.7c0,1.2-0.2,2.5-0.6,3.6c-0.4,1-1,1.9-1.9,2.6c-0.9,0.7-1.8,1.2-2.9,1.5
			c-1.3,0.4-2.5,0.5-3.9,0.5c-0.6,0-1.4,0-2.3-0.1c-0.9-0.1-1.7-0.2-2.6-0.3V58.9c0.9-0.2,1.7-0.3,2.6-0.3c0.9-0.1,1.7-0.1,2.3-0.1
			c1.3,0,2.5,0.1,3.8,0.5c1.1,0.3,2.1,0.8,2.9,1.5c0.8,0.7,1.5,1.6,1.9,2.6C242.9,64.2,243.1,65.4,243.1,66.7z M232.6,71.8h1.4
			c2.6,0.4,4.9-1.4,5.3-4c0.1-0.4,0.1-0.8,0-1.2c0.4-2.5-1.4-4.8-3.8-5.1c-0.5-0.1-0.9-0.1-1.4,0h-0.8c-0.2,0-0.5,0-0.7,0.1
			L232.6,71.8z"/>
		<path id="path56" fill="#FFFFFF" d="M250.8,58.5c1.9-0.1,3.9,0.3,5.5,1.3c2,1.6,2.5,4.5,1.1,6.8c-0.6,0.7-1.3,1.3-2.2,1.7
			c0.3,0.4,0.6,0.9,1,1.4c0.3,0.5,0.7,1.1,1,1.6s0.7,1.2,1,1.8s0.6,1.2,0.9,1.8h-4l-0.9-1.6c-0.3-0.5-0.6-1.1-0.9-1.6
			s-0.6-1-0.9-1.4s-0.6-0.9-0.9-1.2h-1.8v5.9h-3.6V58.9c0.8-0.2,1.6-0.3,2.4-0.3C249.4,58.5,250.1,58.5,250.8,58.5z M251,61.6h-0.7
			h-0.6V66h1c1,0.1,2-0.1,2.9-0.5c0.6-0.4,0.9-1,0.9-1.7c0-0.7-0.3-1.3-0.9-1.7C252.8,61.7,251.9,61.5,251,61.6L251,61.6z"/>
		<path id="path58" fill="#FFFFFF" d="M261.6,74.7V58.7h10.9v3h-7.2v3.2h6.5v3h-6.4v3.9h7.8v3L261.6,74.7z"/>
		<path id="path60" fill="#FFFFFF" d="M40.8,74.6H3.5L22,42.7l9.9,17L40.8,74.6z M19.9,67.4h-4.1v7.2c0.6-1,0.9-1.6,1.3-2.2
			L19.9,67.4z M24,60.3h-4.1v7.1L24,60.3z M28.1,53.3H24v7l0,0l4-6.8L28.1,53.3z"/>
		<path id="path62" fill="#FFFFFF" d="M0.7,86.8H0V81h1.1l1.4,4.4c0,0.1,0,0.2,0.1,0.3c0,0.1,0,0.1,0,0.2l0.1-0.2
			c0-0.1,0-0.2,0.1-0.2L4.2,81h1.1v5.8H4.6v-4.7c0,0.1,0,0.2-0.1,0.2l-1.5,4.4H2.3l-1.4-4.4c0-0.1-0.1-0.2-0.1-0.2
			c0-0.1,0-0.2-0.1-0.3L0.7,86.8z"/>
		<path id="path64" fill="#FFFFFF" d="M10.1,85.4c0,0.4-0.3,0.8-0.6,1.1c-0.4,0.3-0.8,0.4-1.2,0.4c-0.3,0-0.5-0.1-0.8-0.2
			c-0.2-0.1-0.4-0.2-0.6-0.4c-0.2-0.2-0.3-0.4-0.4-0.7c-0.1-0.3-0.1-0.6-0.1-0.9c0-0.3,0-0.7,0.1-1c0.1-0.3,0.2-0.5,0.4-0.7
			c0.2-0.2,0.4-0.3,0.6-0.4c0.2-0.1,0.5-0.2,0.8-0.2c0.5,0,1,0.2,1.4,0.6c0.4,0.4,0.5,1,0.5,1.6v0.3h-3c0,0.4,0.1,0.7,0.3,1
			c0.2,0.2,0.5,0.4,0.9,0.4c0.2,0,0.5-0.1,0.7-0.2c0.2-0.2,0.3-0.4,0.4-0.6L10.1,85.4z M9.4,84.3c0-0.3-0.1-0.7-0.3-0.9
			c-0.5-0.4-1.2-0.4-1.7,0c-0.2,0.3-0.3,0.6-0.3,0.9H9.4z"/>
		<path id="path66" fill="#FFFFFF" d="M16,84.2c0-0.2,0-0.3,0-0.5c0-0.1-0.1-0.2-0.1-0.3c-0.1-0.1-0.1-0.2-0.2-0.2
			c-0.1-0.1-0.3-0.1-0.4-0.1c-0.3,0-0.6,0.1-0.8,0.3c-0.2,0.2-0.3,0.6-0.3,0.9v2.5h-0.7v-2.6c0-0.2,0-0.3,0-0.5
			c0-0.1-0.1-0.2-0.1-0.3c-0.1-0.1-0.1-0.2-0.2-0.2c-0.1-0.1-0.3-0.1-0.4-0.1c-0.3,0-0.6,0.1-0.8,0.3c-0.2,0.3-0.3,0.6-0.3,0.9v2.5
			H11v-4.2h0.6v0.6c0.1-0.2,0.3-0.4,0.6-0.5c0.2-0.1,0.5-0.2,0.8-0.2c0.2,0,0.5,0,0.7,0.2c0.2,0.1,0.4,0.3,0.5,0.5
			c0.2-0.2,0.4-0.4,0.6-0.5c0.2-0.1,0.5-0.2,0.8-0.2c0.2,0,0.5,0,0.7,0.2c0.2,0.1,0.4,0.2,0.5,0.4c0.1,0.2,0.1,0.3,0.1,0.5
			c0,0.2,0,0.4,0,0.6v2.6H16V84.2z"/>
		<path id="path68" fill="#FFFFFF" d="M17.8,81h0.7v2.2c0.3-0.5,0.8-0.7,1.4-0.7c0.3,0,0.5,0.1,0.7,0.2c0.2,0.1,0.4,0.2,0.6,0.4
			c0.2,0.2,0.3,0.5,0.4,0.7c0.2,0.6,0.2,1.2,0,1.8c-0.1,0.3-0.2,0.5-0.4,0.7c-0.2,0.2-0.4,0.3-0.6,0.4c-0.2,0.1-0.5,0.2-0.8,0.2
			c-0.3,0-0.5,0-0.8-0.2c-0.2-0.1-0.4-0.3-0.6-0.5v0.5h-0.7L17.8,81z M18.5,84.6c0,0.4,0.1,0.9,0.3,1.2c0.2,0.3,0.6,0.4,0.9,0.4
			c0.4,0,0.7-0.1,0.9-0.4c0.3-0.3,0.4-0.7,0.4-1.1c0-0.4-0.1-0.9-0.3-1.2c-0.2-0.3-0.6-0.4-0.9-0.4C18.9,83.1,18.5,83.6,18.5,84.6
			L18.5,84.6z"/>
		<path id="path70" fill="#FFFFFF" d="M22.5,82.6h0.7v0.8c0.2-0.5,0.6-0.9,1.2-0.8h0.2v0.7h-0.2c-0.3,0-0.6,0.1-0.9,0.3
			c-0.2,0.2-0.3,0.6-0.3,0.9v2.3h-0.7V82.6z"/>
		<path id="path72" fill="#FFFFFF" d="M28.7,85.4c-0.1,0.4-0.3,0.8-0.6,1.1c-0.6,0.4-1.3,0.5-2,0.2c-0.2-0.1-0.4-0.2-0.6-0.4
			c-0.2-0.2-0.3-0.4-0.4-0.7C25.1,85.3,25,85,25,84.7c0-0.3,0-0.7,0.1-1c0.1-0.3,0.2-0.5,0.4-0.7c0.2-0.2,0.4-0.3,0.6-0.4
			c0.2-0.1,0.5-0.2,0.8-0.2c0.5,0,1,0.2,1.4,0.6c0.4,0.4,0.5,1,0.5,1.6v0.3h-3c0,0.4,0.1,0.7,0.3,1c0.2,0.2,0.5,0.4,0.9,0.4
			c0.5,0,1-0.3,1.1-0.8L28.7,85.4z M28,84.3c0-0.3-0.1-0.7-0.3-0.9c-0.2-0.2-0.5-0.3-0.8-0.3c-0.3,0-0.6,0.1-0.8,0.3
			c-0.2,0.3-0.3,0.6-0.4,0.9H28z"/>
		<path id="path74" fill="#FFFFFF" d="M35.4,86.8h-0.7v-0.5c-0.3,0.4-0.8,0.7-1.4,0.7c-0.3,0-0.5-0.1-0.8-0.2
			c-0.2-0.1-0.4-0.3-0.6-0.4c-0.2-0.2-0.3-0.4-0.4-0.7c-0.1-0.3-0.1-0.6-0.1-0.9c0-0.3,0-0.6,0.1-0.9c0.1-0.3,0.2-0.5,0.4-0.7
			c0.2-0.2,0.4-0.3,0.6-0.4c0.2-0.1,0.5-0.2,0.7-0.2c0.5,0,1,0.2,1.4,0.7V81h0.7V86.8z M34.8,84.6c0-1-0.4-1.6-1.2-1.6
			c-0.4,0-0.7,0.1-0.9,0.4c-0.2,0.4-0.4,0.8-0.3,1.2c0,0.4,0.1,0.8,0.3,1.1c0.2,0.3,0.6,0.4,0.9,0.4c0.4,0,0.7-0.1,0.9-0.4
			C34.7,85.5,34.8,85.1,34.8,84.6z"/>
		<path id="path76" fill="#FFFFFF" d="M40,85.4c-0.1,0.4-0.3,0.8-0.6,1.1c-0.6,0.4-1.3,0.5-2,0.2c-0.2-0.1-0.4-0.2-0.6-0.4
			c-0.2-0.2-0.3-0.4-0.4-0.7c-0.1-0.3-0.1-0.6-0.1-0.9c0-0.3,0-0.7,0.1-1c0.1-0.3,0.2-0.5,0.4-0.7c0.2-0.2,0.4-0.3,0.6-0.4
			c0.2-0.1,0.5-0.2,0.8-0.2c0.5,0,1,0.2,1.4,0.6c0.4,0.4,0.5,1,0.5,1.6v0.3h-3c0,0.4,0.1,0.7,0.3,1c0.4,0.5,1.1,0.6,1.6,0.2
			c0,0,0,0,0,0c0.2-0.2,0.3-0.4,0.4-0.7L40,85.4z M39.3,84.3c0-0.3-0.1-0.7-0.3-0.9c-0.2-0.2-0.5-0.3-0.8-0.3
			c-0.3,0-0.6,0.1-0.8,0.3C37.2,83.6,37,84,37,84.3H39.3z"/>
		<path id="path78" fill="#FFFFFF" d="M43.5,84.9v0.2c0,0.3,0,0.6,0.2,0.8c0.2,0.2,0.4,0.3,0.7,0.3c0.3,0,0.6-0.1,0.8-0.4
			c0-0.1,0.1-0.2,0.1-0.4V81H46v4.2c0,0.5-0.1,0.9-0.4,1.3c-0.3,0.3-0.8,0.5-1.3,0.4c-1.1,0-1.7-0.6-1.7-1.8v-0.2L43.5,84.9z"/>
		<path id="path80" fill="#FFFFFF" d="M48.7,81h0.9l2.2,5.8h-0.8l-0.6-1.7H48l-0.6,1.7h-0.8L48.7,81z M50,84.4l-0.9-2.5l-0.9,2.5H50
			z"/>
		<path id="path82" fill="#FFFFFF" d="M53.9,81h0.8l1.2,4.6l1.2-4.6h0.8l1.3,4.6l1.2-4.6h0.8l-1.5,5.8h-0.8L57.5,82l-1.3,4.7h-0.8
			L53.9,81z"/>
		<path id="path84" fill="#FFFFFF" d="M61.4,84.7c0-0.6,0.2-1.2,0.6-1.7c0.4-0.4,0.9-0.6,1.5-0.6c0.6,0,1.1,0.2,1.5,0.6
			c0.7,1,0.7,2.3,0,3.3c-0.8,0.8-2.2,0.8-3,0C61.6,85.8,61.4,85.3,61.4,84.7z M62.2,84.7c0,0.4,0.1,0.8,0.3,1.2
			c0.2,0.3,0.6,0.4,1,0.4c0.4,0,0.7-0.1,0.9-0.4c0.4-0.7,0.4-1.7,0-2.4c-0.5-0.5-1.4-0.5-1.9,0C62.2,83.8,62.1,84.3,62.2,84.7z"/>
		<path id="path86" fill="#FFFFFF" d="M66.3,82.6H67v0.8c0.2-0.5,0.6-0.9,1.2-0.8h0.2v0.7h-0.2c-0.3,0-0.6,0.1-0.9,0.3
			c-0.2,0.2-0.3,0.6-0.3,0.9v2.3h-0.7V82.6z"/>
		<path id="path88" fill="#FFFFFF" d="M69,81h0.7v5.8H69V81z"/>
		<path id="path90" fill="#FFFFFF" d="M74.4,86.8h-0.7v-0.5c-0.3,0.4-0.8,0.7-1.4,0.7c-0.3,0-0.5-0.1-0.8-0.2
			c-0.2-0.1-0.4-0.3-0.6-0.4c-0.2-0.2-0.3-0.4-0.4-0.7c-0.1-0.3-0.1-0.6-0.1-0.9c0-0.3,0-0.6,0.1-0.9c0.1-0.3,0.2-0.5,0.4-0.7
			c0.2-0.2,0.4-0.3,0.6-0.4c0.2-0.1,0.5-0.2,0.7-0.2c0.5,0,1,0.2,1.4,0.7V81h0.7L74.4,86.8z M73.8,84.6c0-1-0.4-1.6-1.2-1.6
			c-0.4,0-0.7,0.1-0.9,0.4c-0.2,0.4-0.4,0.8-0.3,1.2c0,0.4,0.1,0.8,0.3,1.1c0.2,0.3,0.6,0.4,0.9,0.4c0.4,0,0.7-0.1,0.9-0.4
			C73.7,85.5,73.8,85.1,73.8,84.6z"/>
		<path id="path92" fill="#FFFFFF" d="M75,82.6h0.7l0.9,3.2l0.8-3.2h0.8l0.8,3.2l0.9-3.2h0.7l-1.3,4.2h-0.7l-0.9-3.2L77,86.8h-0.7
			L75,82.6z"/>
		<path id="path94" fill="#FFFFFF" d="M81.3,81H82v0.8h-0.7V81z M81.3,82.6H82v4.2h-0.7V82.6z"/>
		<path id="path96" fill="#FFFFFF" d="M86.8,86.8h-0.7v-0.5c-0.3,0.4-0.8,0.7-1.4,0.7c-0.3,0-0.5-0.1-0.7-0.2
			c-0.2-0.1-0.4-0.2-0.6-0.4c-0.2-0.2-0.3-0.4-0.4-0.7c-0.1-0.3-0.1-0.6-0.1-0.9c0-0.3,0-0.6,0.1-0.9c0.1-0.3,0.2-0.5,0.4-0.7
			c0.2-0.2,0.4-0.3,0.6-0.4c0.2-0.1,0.5-0.2,0.7-0.2c0.5,0,1,0.2,1.4,0.7V81h0.7V86.8z M86.1,84.6c0-1-0.4-1.6-1.2-1.6
			c-0.4,0-0.7,0.1-0.9,0.4c-0.2,0.4-0.4,0.8-0.3,1.2c0,0.4,0.1,0.8,0.4,1.1c0.2,0.3,0.6,0.4,0.9,0.4c0.4,0,0.7-0.1,0.9-0.4
			C86.1,85.5,86.2,85.1,86.1,84.6z"/>
		<path id="path98" fill="#FFFFFF" d="M91.4,85.4c0,0.4-0.3,0.8-0.6,1.1c-0.4,0.3-0.8,0.4-1.2,0.4c-0.3,0-0.5-0.1-0.8-0.2
			c-0.2-0.1-0.4-0.2-0.6-0.4c-0.2-0.2-0.3-0.4-0.4-0.7c-0.1-0.3-0.1-0.6-0.1-0.9c0-0.3,0-0.7,0.1-1c0.1-0.3,0.2-0.5,0.4-0.7
			c0.2-0.2,0.4-0.3,0.6-0.4c0.2-0.1,0.5-0.2,0.8-0.2c0.5,0,1,0.2,1.4,0.6c0.4,0.4,0.5,1,0.5,1.6v0.3h-3c0,0.4,0.1,0.7,0.3,1
			c0.2,0.2,0.5,0.4,0.9,0.4c0.5,0,1-0.3,1.1-0.8L91.4,85.4z M90.7,84.3c0.1-0.6-0.3-1.2-0.9-1.3c-0.4-0.1-0.8,0.1-1.1,0.4
			c-0.2,0.3-0.3,0.6-0.3,0.9H90.7z"/>
		<path id="path100" fill="#FFFFFF" d="M93.6,80.8c0.2,0,0.4,0,0.7,0.1c0.2,0.1,0.4,0.2,0.6,0.4c0.1,0.2,0.3,0.3,0.4,0.5
			c0.1,0.2,0.1,0.4,0.1,0.6c0,0.2,0,0.4-0.1,0.7c-0.1,0.2-0.2,0.4-0.4,0.5c-0.2,0.2-0.3,0.3-0.6,0.4c-0.4,0.2-0.9,0.2-1.3,0
			c-0.2-0.1-0.4-0.2-0.5-0.4c-0.2-0.2-0.3-0.3-0.4-0.5C92,82.9,92,82.7,92,82.4c0-0.2,0-0.4,0.1-0.6c0.1-0.2,0.2-0.4,0.4-0.6
			c0.2-0.2,0.3-0.3,0.5-0.4C93.2,80.8,93.4,80.8,93.6,80.8z M95.1,82.5c0-0.2,0-0.4-0.1-0.6c-0.1-0.2-0.2-0.3-0.3-0.5
			c-0.1-0.1-0.3-0.3-0.5-0.3c-0.4-0.2-0.8-0.2-1.1,0c-0.2,0.1-0.3,0.2-0.5,0.3c-0.1,0.1-0.3,0.3-0.3,0.5c-0.1,0.2-0.1,0.4-0.1,0.6
			c0,0.2,0,0.4,0.1,0.6c0.1,0.2,0.2,0.3,0.3,0.5c0.1,0.1,0.3,0.3,0.5,0.3c0.2,0.1,0.4,0.1,0.5,0.1c0.2,0,0.4,0,0.6-0.1
			c0.4-0.1,0.7-0.4,0.8-0.8C95.1,82.8,95.1,82.6,95.1,82.5L95.1,82.5z M93.7,81.5c0.5,0,0.8,0.2,0.8,0.5c0,0.1,0,0.2-0.1,0.3
			c-0.1,0.1-0.2,0.2-0.3,0.2l0.4,0.9h-0.4l-0.4-0.8h-0.3v0.8H93v-1.9L93.7,81.5z M93.3,81.7v0.6h0.3c0.1,0,0.2,0,0.4-0.1
			c0.1-0.1,0.1-0.2,0.1-0.3c0-0.1,0-0.2-0.1-0.2c-0.1-0.1-0.2-0.1-0.4-0.1L93.3,81.7z"/>
	</g>
</g>
<g id="flowRoot936" transform="translate(11.777053,-21.025827)">
	<path id="path881" inkscape:connector-curvature="0" fill="#FFFFFF" d="M134.2,102.4c1.3,0,2.3,0.2,3,0.7c0.7,0.5,1.1,1.2,1.1,2.2
		c0,0.5-0.1,1-0.3,1.4c-0.2,0.4-0.5,0.7-0.8,0.9c-0.4,0.2-0.8,0.4-1.3,0.5c-0.5,0.1-1.1,0.2-1.7,0.2h-1v3.4h-1.3v-9.1
		c0.4-0.1,0.8-0.1,1.2-0.2C133.4,102.5,133.8,102.4,134.2,102.4L134.2,102.4z M134.3,103.6c-0.6,0-1,0-1.3,0v3.6h1
		c0.4,0,0.8,0,1.2-0.1c0.4-0.1,0.7-0.2,0.9-0.3c0.2-0.1,0.4-0.3,0.6-0.6c0.1-0.2,0.2-0.5,0.2-0.9c0-0.4-0.1-0.6-0.2-0.9
		c-0.1-0.2-0.3-0.4-0.6-0.5c-0.2-0.1-0.5-0.2-0.8-0.3C135,103.6,134.6,103.6,134.3,103.6L134.3,103.6z"/>
	<path id="path883" inkscape:connector-curvature="0" fill="#FFFFFF" d="M142.3,104.7c0.1,0,0.2,0,0.4,0c0.1,0,0.3,0,0.4,0.1
		c0.1,0,0.3,0,0.4,0.1c0.1,0,0.2,0,0.3,0.1l-0.2,1.1c-0.1,0-0.3-0.1-0.5-0.1c-0.2-0.1-0.5-0.1-0.9-0.1c-0.2,0-0.5,0-0.7,0.1
		c-0.2,0-0.4,0.1-0.4,0.1v5.8h-1.2v-6.6c0.3-0.1,0.7-0.2,1.1-0.3C141.3,104.8,141.8,104.7,142.3,104.7L142.3,104.7z"/>
	<path id="path885" inkscape:connector-curvature="0" fill="#FFFFFF" d="M151,108.3c0,0.6-0.1,1-0.2,1.5c-0.2,0.4-0.4,0.8-0.7,1.1
		c-0.3,0.3-0.6,0.6-1,0.7c-0.4,0.2-0.8,0.3-1.3,0.3s-0.9-0.1-1.3-0.3c-0.4-0.2-0.7-0.4-1-0.7c-0.3-0.3-0.5-0.7-0.7-1.1
		c-0.2-0.4-0.2-0.9-0.2-1.5c0-0.5,0.1-1,0.2-1.5c0.2-0.5,0.4-0.8,0.7-1.2c0.3-0.3,0.6-0.6,1-0.7c0.4-0.2,0.8-0.3,1.3-0.3
		c0.5,0,0.9,0.1,1.3,0.3c0.4,0.2,0.7,0.4,1,0.7c0.3,0.3,0.5,0.7,0.7,1.2C150.9,107.3,151,107.8,151,108.3z M149.7,108.3
		c0-0.8-0.2-1.4-0.5-1.9c-0.3-0.5-0.8-0.7-1.4-0.7s-1.1,0.2-1.4,0.7c-0.3,0.5-0.5,1.1-0.5,1.9s0.2,1.4,0.5,1.9
		c0.4,0.5,0.8,0.7,1.4,0.7c0.6,0,1.1-0.2,1.4-0.7C149.6,109.7,149.7,109.1,149.7,108.3z"/>
	<path id="path887" inkscape:connector-curvature="0" fill="#FFFFFF" d="M158,104.8c-0.3,1.3-0.8,2.5-1.2,3.7
		c-0.5,1.2-0.9,2.3-1.3,3.2h-1.1c-0.4-0.9-0.9-2-1.4-3.2c-0.5-1.2-0.9-2.4-1.2-3.7h1.3c0.1,0.4,0.2,0.9,0.4,1.4
		c0.2,0.5,0.3,1,0.5,1.5c0.2,0.5,0.3,0.9,0.5,1.4c0.2,0.5,0.3,0.9,0.5,1.2c0.2-0.4,0.3-0.8,0.5-1.2c0.2-0.5,0.3-0.9,0.5-1.4
		c0.2-0.5,0.3-1,0.5-1.5c0.2-0.5,0.3-1,0.4-1.4H158z"/>
	<path id="path889" inkscape:connector-curvature="0" fill="#FFFFFF" d="M158.7,108.3c0-0.6,0.1-1.1,0.3-1.6
		c0.2-0.5,0.4-0.8,0.7-1.1c0.3-0.3,0.6-0.5,1-0.7c0.4-0.2,0.8-0.2,1.2-0.2c0.9,0,1.6,0.3,2.1,0.9c0.5,0.6,0.7,1.5,0.7,2.7
		c0,0.1,0,0.1,0,0.2c0,0.1,0,0.2,0,0.2H160c0.1,0.7,0.3,1.3,0.6,1.6c0.4,0.4,0.9,0.6,1.7,0.6c0.4,0,0.8,0,1.1-0.1
		c0.3-0.1,0.5-0.2,0.7-0.2l0.2,1c-0.2,0.1-0.4,0.2-0.8,0.3c-0.4,0.1-0.8,0.1-1.3,0.1c-0.6,0-1.1-0.1-1.6-0.3
		c-0.4-0.2-0.8-0.4-1.1-0.8c-0.3-0.3-0.5-0.7-0.6-1.1C158.8,109.3,158.7,108.9,158.7,108.3L158.7,108.3z M163.5,107.6
		c0-0.6-0.1-1-0.4-1.4c-0.3-0.4-0.7-0.5-1.2-0.5c-0.3,0-0.5,0.1-0.8,0.2c-0.2,0.1-0.4,0.2-0.5,0.4c-0.2,0.2-0.3,0.4-0.4,0.6
		c-0.1,0.2-0.1,0.5-0.2,0.7H163.5z"/>
	<path id="path891" inkscape:connector-curvature="0" fill="#FFFFFF" d="M166.5,105c0.3-0.1,0.7-0.1,1.1-0.2c0.5-0.1,1-0.1,1.6-0.1
		c0.6,0,1,0.1,1.4,0.2c0.4,0.2,0.7,0.4,0.9,0.7c0.2,0.3,0.4,0.6,0.5,1c0.1,0.4,0.1,0.8,0.1,1.3v3.9h-1.2v-3.6c0-0.4,0-0.8-0.1-1.1
		c-0.1-0.3-0.1-0.5-0.3-0.7c-0.1-0.2-0.3-0.3-0.5-0.4c-0.2-0.1-0.5-0.1-0.8-0.1c-0.1,0-0.3,0-0.4,0c-0.1,0-0.3,0-0.4,0
		c-0.1,0-0.2,0-0.3,0c-0.1,0-0.2,0-0.2,0v5.9h-1.2L166.5,105z"/>
	<path id="path893" inkscape:connector-curvature="0" fill="#FFFFFF" d="M177.2,111.9c-0.6,0-1.1-0.1-1.5-0.3
		c-0.4-0.2-0.8-0.4-1.1-0.7c-0.3-0.3-0.5-0.7-0.6-1.1c-0.1-0.4-0.2-0.9-0.2-1.5c0-0.5,0.1-1,0.2-1.5c0.2-0.4,0.4-0.8,0.7-1.1
		c0.3-0.3,0.6-0.6,1-0.8c0.4-0.2,0.9-0.3,1.4-0.3c0.3,0,0.6,0,0.9,0.1c0.3,0.1,0.6,0.1,0.9,0.3l-0.3,1.1c-0.2-0.1-0.4-0.2-0.7-0.2
		c-0.2-0.1-0.5-0.1-0.8-0.1c-0.7,0-1.2,0.2-1.6,0.7c-0.4,0.4-0.5,1.1-0.5,1.9c0,0.4,0,0.7,0.1,1c0.1,0.3,0.2,0.6,0.4,0.8
		c0.2,0.2,0.4,0.4,0.7,0.5c0.3,0.1,0.6,0.2,1,0.2c0.3,0,0.6,0,0.9-0.1s0.5-0.1,0.6-0.2l0.2,1c-0.1,0-0.2,0.1-0.3,0.1
		c-0.1,0-0.3,0.1-0.5,0.1c-0.2,0-0.4,0.1-0.5,0.1C177.6,111.9,177.4,111.9,177.2,111.9L177.2,111.9z"/>
	<path id="path895" inkscape:connector-curvature="0" fill="#FFFFFF" d="M180,108.3c0-0.6,0.1-1.1,0.3-1.6c0.2-0.5,0.4-0.8,0.7-1.1
		c0.3-0.3,0.6-0.5,1-0.7c0.4-0.2,0.8-0.2,1.2-0.2c0.9,0,1.6,0.3,2.1,0.9c0.5,0.6,0.7,1.5,0.7,2.7c0,0.1,0,0.1,0,0.2
		c0,0.1,0,0.2,0,0.2h-4.7c0.1,0.7,0.3,1.3,0.6,1.6c0.4,0.4,0.9,0.6,1.7,0.6c0.4,0,0.8,0,1.1-0.1c0.3-0.1,0.5-0.2,0.7-0.2l0.2,1
		c-0.2,0.1-0.4,0.2-0.8,0.3c-0.4,0.1-0.8,0.1-1.3,0.1c-0.6,0-1.1-0.1-1.6-0.3c-0.4-0.2-0.8-0.4-1.1-0.8c-0.3-0.3-0.5-0.7-0.6-1.1
		C180.1,109.3,180,108.9,180,108.3L180,108.3z M184.8,107.6c0-0.6-0.1-1-0.4-1.4c-0.3-0.4-0.7-0.5-1.2-0.5c-0.3,0-0.5,0.1-0.8,0.2
		c-0.2,0.1-0.4,0.2-0.5,0.4c-0.2,0.2-0.3,0.4-0.4,0.6c-0.1,0.2-0.1,0.5-0.2,0.7H184.8z"/>
	<path id="path897" inkscape:connector-curvature="0" fill="#FFFFFF" d="M187.1,107.2h3.3v1.2h-3.3V107.2z"/>
	<path id="path899" inkscape:connector-curvature="0" fill="#FFFFFF" d="M198.1,111.8c-0.2-0.4-0.3-0.8-0.4-1.2
		c-0.1-0.4-0.3-0.8-0.4-1.2h-4.2l-0.8,2.4h-1.3c0.4-1,0.7-1.9,1-2.7c0.3-0.8,0.6-1.6,0.9-2.4c0.3-0.7,0.6-1.5,0.9-2.1
		c0.3-0.7,0.6-1.4,0.9-2h1.2c0.3,0.7,0.6,1.3,0.9,2c0.3,0.7,0.6,1.4,0.9,2.1c0.3,0.7,0.6,1.5,0.9,2.4c0.3,0.8,0.6,1.7,1,2.7H198.1z
		 M196.9,108.4c-0.3-0.8-0.6-1.5-0.9-2.2c-0.3-0.7-0.6-1.4-0.9-2.1c-0.3,0.7-0.6,1.4-0.9,2.1c-0.3,0.7-0.6,1.5-0.8,2.2H196.9z"/>
	<path id="path901" inkscape:connector-curvature="0" fill="#FFFFFF" d="M202.7,111.9c-0.8,0-1.3-0.2-1.6-0.5
		c-0.3-0.3-0.5-0.8-0.5-1.5v-8.3l1.2-0.2v8.3c0,0.2,0,0.4,0.1,0.5c0,0.1,0.1,0.2,0.2,0.3c0.1,0.1,0.2,0.1,0.3,0.2
		c0.1,0,0.3,0.1,0.5,0.1L202.7,111.9z"/>
	<path id="path903" inkscape:connector-curvature="0" fill="#FFFFFF" d="M209.1,108.3c0-0.8-0.2-1.4-0.6-1.9
		c-0.4-0.4-0.9-0.7-1.6-0.7c-0.4,0-0.7,0-0.9,0c-0.2,0-0.4,0.1-0.5,0.1v4.4c0.2,0.1,0.4,0.2,0.7,0.4c0.3,0.1,0.6,0.2,0.9,0.2
		c0.4,0,0.7-0.1,0.9-0.2c0.3-0.1,0.5-0.3,0.6-0.5c0.2-0.2,0.3-0.5,0.3-0.8C209.1,109,209.1,108.7,209.1,108.3L209.1,108.3z
		 M210.4,108.3c0,0.5-0.1,1-0.2,1.5c-0.1,0.4-0.3,0.8-0.6,1.1c-0.3,0.3-0.6,0.6-1,0.7c-0.4,0.2-0.8,0.3-1.3,0.3
		c-0.4,0-0.8-0.1-1.1-0.2c-0.3-0.1-0.5-0.2-0.7-0.3v2.8h-1.2v-9.2c0.3-0.1,0.7-0.1,1.1-0.2c0.4-0.1,1-0.1,1.5-0.1
		c0.5,0,1,0.1,1.4,0.3c0.4,0.2,0.8,0.4,1.1,0.7s0.5,0.7,0.7,1.1C210.3,107.3,210.4,107.8,210.4,108.3L210.4,108.3z"/>
	<path id="path905" inkscape:connector-curvature="0" fill="#FFFFFF" d="M211.8,108.3c0-0.6,0.1-1.1,0.3-1.6
		c0.2-0.5,0.4-0.8,0.7-1.1c0.3-0.3,0.6-0.5,1-0.7c0.4-0.2,0.8-0.2,1.2-0.2c0.9,0,1.6,0.3,2.1,0.9c0.5,0.6,0.7,1.5,0.7,2.7
		c0,0.1,0,0.1,0,0.2c0,0.1,0,0.2,0,0.2h-4.7c0.1,0.7,0.3,1.3,0.6,1.6c0.4,0.4,0.9,0.6,1.7,0.6c0.4,0,0.8,0,1.1-0.1
		c0.3-0.1,0.5-0.2,0.7-0.2l0.2,1c-0.2,0.1-0.4,0.2-0.8,0.3c-0.4,0.1-0.8,0.1-1.3,0.1c-0.6,0-1.1-0.1-1.6-0.3
		c-0.4-0.2-0.8-0.4-1.1-0.8s-0.5-0.7-0.6-1.1C211.9,109.3,211.8,108.9,211.8,108.3L211.8,108.3z M216.5,107.6c0-0.6-0.1-1-0.4-1.4
		c-0.3-0.4-0.7-0.5-1.2-0.5c-0.3,0-0.5,0.1-0.8,0.2c-0.2,0.1-0.4,0.2-0.5,0.4c-0.2,0.2-0.3,0.4-0.4,0.6c-0.1,0.2-0.1,0.5-0.2,0.7
		H216.5z"/>
	<path id="path907" inkscape:connector-curvature="0" fill="#FFFFFF" d="M221.2,110.9c0.5,0,0.9-0.1,1.1-0.2
		c0.2-0.1,0.4-0.3,0.4-0.6c0-0.3-0.1-0.5-0.4-0.7c-0.2-0.2-0.6-0.4-1.2-0.6c-0.3-0.1-0.5-0.2-0.8-0.3c-0.2-0.1-0.4-0.2-0.6-0.4
		c-0.2-0.2-0.3-0.3-0.4-0.5s-0.2-0.5-0.2-0.8c0-0.6,0.2-1.1,0.7-1.5c0.5-0.4,1.1-0.5,1.9-0.5c0.2,0,0.4,0,0.6,0c0.2,0,0.4,0,0.5,0.1
		c0.2,0,0.3,0.1,0.4,0.1c0.1,0,0.2,0.1,0.3,0.1l-0.2,1.1c-0.1-0.1-0.3-0.1-0.6-0.2c-0.3-0.1-0.6-0.1-1-0.1c-0.3,0-0.6,0.1-0.9,0.2
		c-0.3,0.1-0.4,0.3-0.4,0.6c0,0.2,0,0.3,0.1,0.4c0.1,0.1,0.2,0.2,0.3,0.3c0.1,0.1,0.3,0.2,0.5,0.3c0.2,0.1,0.4,0.2,0.6,0.3
		c0.3,0.1,0.6,0.2,0.9,0.4c0.3,0.1,0.5,0.3,0.7,0.4c0.2,0.2,0.3,0.4,0.4,0.6c0.1,0.2,0.1,0.5,0.1,0.8c0,0.6-0.2,1.1-0.7,1.5
		c-0.5,0.3-1.1,0.5-2,0.5c-0.6,0-1.1-0.1-1.4-0.2c-0.3-0.1-0.6-0.2-0.7-0.2l0.2-1.1c0.1,0.1,0.4,0.1,0.7,0.2
		C220.3,110.8,220.7,110.9,221.2,110.9L221.2,110.9z"/>
	<path id="path909" inkscape:connector-curvature="0" fill="#FFFFFF" d="M224.8,107.2h3.3v1.2h-3.3V107.2z"/>
	<path id="path911" inkscape:connector-curvature="0" fill="#FFFFFF" d="M233.6,112c-0.6,0-1.2-0.1-1.8-0.3c-0.5-0.2-1-0.5-1.4-0.9
		c-0.4-0.4-0.7-0.9-0.9-1.5c-0.2-0.6-0.3-1.3-0.3-2.1c0-0.8,0.1-1.5,0.3-2.1c0.2-0.6,0.6-1.1,1-1.5c0.4-0.4,0.9-0.7,1.4-0.9
		s1.1-0.3,1.7-0.3c0.4,0,0.7,0,1,0.1c0.3,0.1,0.6,0.1,0.8,0.2c0.2,0.1,0.4,0.1,0.6,0.2c0.1,0.1,0.2,0.1,0.3,0.2L236,104
		c-0.1-0.1-0.2-0.1-0.3-0.2c-0.2-0.1-0.3-0.1-0.5-0.2c-0.2-0.1-0.4-0.1-0.6-0.1c-0.2,0-0.4-0.1-0.7-0.1c-0.5,0-0.9,0.1-1.3,0.3
		c-0.4,0.2-0.7,0.4-1,0.7c-0.3,0.3-0.5,0.7-0.6,1.2c-0.1,0.5-0.2,1-0.2,1.5c0,0.6,0.1,1.1,0.2,1.5c0.1,0.5,0.3,0.8,0.6,1.2
		c0.3,0.3,0.6,0.6,1,0.7c0.4,0.2,0.8,0.3,1.4,0.3c0.6,0,1.1-0.1,1.5-0.2s0.7-0.2,0.9-0.3l0.3,1.1c-0.1,0-0.2,0.1-0.3,0.2
		c-0.2,0.1-0.4,0.1-0.6,0.2c-0.2,0.1-0.5,0.1-0.8,0.2C234.3,112,234,112,233.6,112L233.6,112z"/>
	<path id="path913" inkscape:connector-curvature="0" fill="#FFFFFF" d="M243.7,108.3c0,0.6-0.1,1-0.2,1.5c-0.2,0.4-0.4,0.8-0.7,1.1
		c-0.3,0.3-0.6,0.6-1,0.7c-0.4,0.2-0.8,0.3-1.3,0.3c-0.5,0-0.9-0.1-1.3-0.3c-0.4-0.2-0.7-0.4-1-0.7c-0.3-0.3-0.5-0.7-0.7-1.1
		c-0.2-0.4-0.2-0.9-0.2-1.5c0-0.5,0.1-1,0.2-1.5c0.2-0.5,0.4-0.8,0.7-1.2c0.3-0.3,0.6-0.6,1-0.7c0.4-0.2,0.8-0.3,1.3-0.3
		c0.5,0,0.9,0.1,1.3,0.3c0.4,0.2,0.7,0.4,1,0.7c0.3,0.3,0.5,0.7,0.7,1.2C243.6,107.3,243.7,107.8,243.7,108.3z M242.4,108.3
		c0-0.8-0.2-1.4-0.5-1.9c-0.3-0.5-0.8-0.7-1.4-0.7c-0.6,0-1.1,0.2-1.4,0.7c-0.3,0.5-0.5,1.1-0.5,1.9s0.2,1.4,0.5,1.9
		c0.4,0.5,0.8,0.7,1.4,0.7c0.6,0,1.1-0.2,1.4-0.7C242.2,109.7,242.4,109.1,242.4,108.3z M240.5,101.5l1.8,1.9l-0.5,0.6l-1.3-1.2
		l-1.3,1.2l-0.5-0.6L240.5,101.5z"/>
	<path id="path915" inkscape:connector-curvature="0" fill="#FFFFFF" d="M246.6,104.8h2.6v1h-2.6v3.2c0,0.3,0,0.6,0.1,0.9
		c0.1,0.2,0.1,0.4,0.2,0.5c0.1,0.1,0.2,0.2,0.4,0.3c0.2,0.1,0.3,0.1,0.6,0.1c0.4,0,0.7,0,0.9-0.1c0.2-0.1,0.4-0.2,0.5-0.2l0.2,1
		c-0.1,0.1-0.3,0.1-0.7,0.2c-0.3,0.1-0.7,0.1-1.1,0.1c-0.5,0-0.9-0.1-1.2-0.2c-0.3-0.1-0.5-0.3-0.7-0.5c-0.2-0.2-0.3-0.5-0.4-0.9
		c-0.1-0.4-0.1-0.8-0.1-1.2v-6.2l1.2-0.2V104.8z"/>
	<path id="path917" inkscape:connector-curvature="0" fill="#FFFFFF" d="M250.3,108.3c0-0.6,0.1-1.1,0.3-1.6
		c0.2-0.5,0.4-0.8,0.7-1.1c0.3-0.3,0.6-0.5,1-0.7c0.4-0.2,0.8-0.2,1.2-0.2c0.9,0,1.6,0.3,2.1,0.9c0.5,0.6,0.7,1.5,0.7,2.7
		c0,0.1,0,0.1,0,0.2c0,0.1,0,0.2,0,0.2h-4.7c0.1,0.7,0.3,1.3,0.6,1.6s0.9,0.6,1.7,0.6c0.4,0,0.8,0,1.1-0.1c0.3-0.1,0.5-0.2,0.7-0.2
		l0.2,1c-0.2,0.1-0.4,0.2-0.8,0.3c-0.4,0.1-0.8,0.1-1.3,0.1c-0.6,0-1.1-0.1-1.6-0.3c-0.4-0.2-0.8-0.4-1.1-0.8
		c-0.3-0.3-0.5-0.7-0.6-1.1C250.4,109.3,250.3,108.9,250.3,108.3L250.3,108.3z M255.1,107.6c0-0.6-0.1-1-0.4-1.4
		c-0.3-0.4-0.7-0.5-1.2-0.5c-0.3,0-0.5,0.1-0.8,0.2c-0.2,0.1-0.4,0.2-0.5,0.4c-0.2,0.2-0.3,0.4-0.4,0.6c-0.1,0.2-0.1,0.5-0.2,0.7
		H255.1z"/>
	<path id="path919" inkscape:connector-curvature="0" fill="#FFFFFF" d="M265.7,106.3c-0.2-0.1-0.4-0.2-0.7-0.4s-0.6-0.2-0.9-0.2
		c-0.4,0-0.7,0.1-0.9,0.2c-0.2,0.1-0.5,0.3-0.6,0.5c-0.2,0.2-0.3,0.5-0.3,0.8c-0.1,0.3-0.1,0.6-0.1,1c0,0.8,0.2,1.4,0.6,1.9
		c0.4,0.4,0.9,0.7,1.6,0.7c0.3,0,0.6,0,0.8,0c0.2,0,0.4-0.1,0.5-0.1L265.7,106.3z M265.7,101.6l1.2-0.2v10.1
		c-0.3,0.1-0.6,0.2-1.1,0.2c-0.4,0.1-1,0.1-1.5,0.1c-0.5,0-1-0.1-1.4-0.3c-0.4-0.2-0.8-0.4-1.1-0.7s-0.5-0.7-0.7-1.1
		c-0.2-0.5-0.2-1-0.2-1.5c0-0.5,0.1-1,0.2-1.5c0.1-0.4,0.3-0.8,0.6-1.1c0.3-0.3,0.6-0.6,1-0.7c0.4-0.2,0.8-0.3,1.3-0.3
		c0.4,0,0.8,0.1,1.1,0.2c0.3,0.1,0.5,0.2,0.7,0.3L265.7,101.6z"/>
	<path id="path921" inkscape:connector-curvature="0" fill="#FFFFFF" d="M270.3,101.6v0.7c0,0.4,0,0.9-0.1,1.4
		c-0.1,0.5-0.1,0.9-0.2,1.4h-0.7c-0.1-0.5-0.1-0.9-0.2-1.4c-0.1-0.5-0.1-0.9-0.1-1.4v-0.7L270.3,101.6z"/>
	<path id="path923" inkscape:connector-curvature="0" fill="#FFFFFF" d="M277.5,111.8c-0.2-0.4-0.3-0.8-0.4-1.2
		c-0.1-0.4-0.3-0.8-0.4-1.2h-4.2l-0.8,2.4h-1.3c0.4-1,0.7-1.9,1-2.7c0.3-0.8,0.6-1.6,0.9-2.4c0.3-0.7,0.6-1.5,0.9-2.1
		c0.3-0.7,0.6-1.4,0.9-2h1.2c0.3,0.7,0.6,1.3,0.9,2c0.3,0.7,0.6,1.4,0.9,2.1c0.3,0.7,0.6,1.5,0.9,2.4c0.3,0.8,0.6,1.7,1,2.7H277.5z
		 M276.3,108.4c-0.3-0.8-0.6-1.5-0.9-2.2c-0.3-0.7-0.6-1.4-0.9-2.1c-0.3,0.7-0.6,1.4-0.9,2.1c-0.3,0.7-0.6,1.5-0.8,2.2H276.3z"/>
	<path id="path925" inkscape:connector-curvature="0" fill="#FFFFFF" d="M284.9,105.8c-0.2,0.2-0.4,0.5-0.7,0.9
		c-0.3,0.4-0.6,0.8-1,1.2c-0.3,0.5-0.7,0.9-1.1,1.4c-0.3,0.5-0.7,1-0.9,1.4h3.8v1h-5.3V111c0.2-0.4,0.5-0.8,0.8-1.3
		c0.3-0.5,0.6-0.9,1-1.4c0.3-0.5,0.7-0.9,1-1.3c0.3-0.4,0.6-0.8,0.9-1.1h-3.4v-1h5L284.9,105.8z"/>
	<path id="path927" inkscape:connector-curvature="0" fill="#FFFFFF" d="M291.9,111.6c-0.3,0.1-0.7,0.1-1.1,0.2
		c-0.5,0.1-1,0.1-1.6,0.1c-0.5,0-1-0.1-1.3-0.2c-0.4-0.2-0.7-0.4-0.9-0.7c-0.2-0.3-0.4-0.6-0.5-1c-0.1-0.4-0.1-0.8-0.1-1.3v-3.9h1.2
		v3.6c0,0.8,0.1,1.4,0.4,1.8s0.7,0.5,1.3,0.5c0.1,0,0.3,0,0.4,0c0.1,0,0.3,0,0.4,0c0.1,0,0.2,0,0.3,0c0.1,0,0.2,0,0.2-0.1v-5.9h1.2
		L291.9,111.6z"/>
	<path id="path929" inkscape:connector-curvature="0" fill="#FFFFFF" d="M296.6,104.7c0.1,0,0.2,0,0.4,0c0.1,0,0.3,0,0.4,0.1
		c0.1,0,0.3,0,0.4,0.1c0.1,0,0.2,0,0.3,0.1l-0.2,1.1c-0.1,0-0.3-0.1-0.5-0.1c-0.2-0.1-0.5-0.1-0.9-0.1c-0.2,0-0.5,0-0.7,0.1
		c-0.2,0-0.4,0.1-0.4,0.1v5.8H294v-6.6c0.3-0.1,0.7-0.2,1.1-0.3C295.5,104.8,296,104.7,296.6,104.7L296.6,104.7z"/>
</g>
</svg>
